<svg xmlns="http://www.w3.org/2000/svg" width="36" height="36" viewBox="0 0 36 36">
  <g id="Group_99" data-name="Group 99" transform="translate(-963 -1086)">
    <circle id="Ellipse_23" data-name="Ellipse 23" cx="18" cy="18" r="18" transform="translate(963 1086)" fill="#fff"/>
    <circle id="Ellipse_24" data-name="Ellipse 24" cx="13" cy="13" r="13" transform="translate(968 1091)" fill="#3bbbff"/>
    <path id="iconmonstr-eye-9" d="M10.26,9.472A2.052,2.052,0,1,1,8.208,7.42,2.055,2.055,0,0,1,10.26,9.472Zm6.156-.307s-2.908,5.779-8.2,5.779C3.307,14.944,0,9.165,0,9.165S3.041,4,8.219,4C13.481,4,16.417,9.165,16.417,9.165Zm-4.788.307a3.42,3.42,0,1,0-3.42,3.42A3.424,3.424,0,0,0,11.628,9.472Z" transform="translate(973 1094.056)" fill="#fff"/>
  </g>
</svg>
