<svg xmlns="http://www.w3.org/2000/svg" width="208" height="24" viewBox="0 0 208 24">
  <g id="Group_92" data-name="Group 92" transform="translate(-153 562)">
    <text id="Trip_Trip_Hoorapp" data-name="Trip Trip Hoorapp" transform="translate(186 -543)" fill="#191919" font-size="20" font-family="WorkSans-Black, Work Sans" font-weight="800"><tspan x="0" y="0">Trip Trip Hoorapp</tspan></text>
    <path id="iconmonstr-airport-18" d="M13.777,19.49l-.466,1.739L.742,17.851A1,1,0,0,1,0,16.886l.035-.26C.661,14.288,2.255,8.34,2.882,6a1,1,0,0,1,1.224-.707C6.487,5.932,12,7.414,16.677,8.665L16.2,10.433l.965.262.474-1.772,5.613,1.5A1,1,0,0,1,24,11.39l-.034.259-2.847,10.61A1,1,0,0,1,20.15,23l-.26-.034-5.613-1.478.465-1.736-.965-.262Zm5.665,1.3.259-.966-2.716-.717-.259.966Zm-5.406-2.267.965.261.444-1.658-.965-.262ZM5.129,13.741,7.723,12.7,5.339,10.318l.822-.328,4.03,1.727,2.055-.822c.542-.22,1.4-.081,1.563.329l.028.215a1.591,1.591,0,0,1-.932,1.1l-2.057.822L9.121,17.391,8.3,17.72l.083-3.372L5.787,15.386l-.614,1.2-.575.23-.044-1.89-1.271-1.4.575-.231,1.271.446Zm15.349,3.186.259-.966-2.717-.717-.259.966,2.717.717ZM14.739,15.9l.965.262.5-1.876-.965-.261-.5,1.875Zm6.257-.9.259-.966-2.717-.717-.259.966L21,14.995ZM15.5,13.058l.964.261.445-1.659-.965-.261L15.5,13.058Zm6.012.005.259-.966-2.717-.716-.258.965,2.716.717ZM7.43,4.382,19.958,1.034,20.217,1a1,1,0,0,1,.966.741l1.833,6.828L7.43,4.382Z" transform="translate(153 -561)" fill="#f36b7f" fill-rule="evenodd"/>
  </g>
</svg>
